<svg width="458" height="114" viewBox="0 0 458 114" fill="none" xmlns="http://www.w3.org/2000/svg">
<path d="M457.505 0C283.802 71.8092 80.1253 105.403 0 113.223L457.505 113.258V0Z" fill="#E5EAFC"/>
<path d="M458 44.991C331.81 85.1954 100.36 107.254 0.409347 113.258C238.162 100.673 404.533 88.3485 458 83.7596V44.991Z" fill="#C6D2FD"/>
<mask id="mask0_1945_343" style="mask-type:alpha" maskUnits="userSpaceOnUse" x="0" y="54" width="294" height="60">
<rect y="54.585" width="293.423" height="58.6733" fill="#D9D9D9"/>
</mask>
<g mask="url(#mask0_1945_343)">
<path d="M457.505 0.000244532C283.802 71.8095 80.1253 105.403 0 113.223L457.505 113.258V0.000244532Z" fill="#C6D2FD"/>
<path d="M458 44.9915C331.81 85.1959 100.36 107.255 0.409347 113.259C238.162 100.673 404.533 88.349 458 83.7601V44.9915Z" fill="#93AAFD"/>
</g>
</svg>
