<svg width="636" height="311" viewBox="0 0 636 311" fill="none" xmlns="http://www.w3.org/2000/svg">
<rect x="179.885" width="84.6716" height="310.321" rx="10" fill="#F7F7FB"/>
<rect y="279.96" width="10.5698" height="28.7981" rx="5.28073" fill="#962DFF"/>
<rect x="16.9118" y="197.548" width="10.5698" height="111.21" rx="5.28073" fill="#4A3AFF"/>
<rect x="33.8236" y="30.8675" width="10.5698" height="277.891" rx="5.28073" fill="#E0C6FD"/>
<rect x="50.7352" y="135.201" width="10.5698" height="173.557" rx="5.28073" fill="#93AAFD"/>
<rect x="95.7838" y="227.305" width="10.5698" height="81.4528" rx="5.28073" fill="#962DFF"/>
<rect x="112.696" y="283.623" width="10.5698" height="25.1345" rx="5.28073" fill="#4A3AFF"/>
<rect x="129.607" y="290.956" width="10.5698" height="17.8016" rx="5.28073" fill="#E0C6FD"/>
<rect x="146.519" y="183.893" width="10.5698" height="124.865" rx="5.28073" fill="#93AAFD"/>
<rect x="191.568" y="223.6" width="10.5698" height="85.1581" rx="5.28073" fill="#962DFF"/>
<rect x="208.48" y="88.177" width="10.5698" height="220.581" rx="5.28073" fill="#4A3AFF"/>
<rect x="225.391" y="141.735" width="10.5698" height="167.023" rx="5.28073" fill="#E0C6FD"/>
<rect x="242.303" y="197.548" width="10.5698" height="111.21" rx="5.28073" fill="#93AAFD"/>
<rect x="287.351" y="221.607" width="10.5698" height="87.1507" rx="5.28073" fill="#962DFF"/>
<rect x="304.263" y="242.646" width="10.5698" height="66.1123" rx="5.28073" fill="#4A3AFF"/>
<rect x="321.175" y="191.391" width="10.5698" height="117.367" rx="5.28073" fill="#E0C6FD"/>
<rect x="338.086" y="275.853" width="10.5698" height="32.9049" rx="5.28073" fill="#93AAFD"/>
<rect x="383.136" y="296.871" width="10.5698" height="11.8863" rx="5.28073" fill="#962DFF"/>
<rect x="400.047" y="290.871" width="10.5698" height="17.8871" rx="5.28073" fill="#4A3AFF"/>
<rect x="416.959" y="247.228" width="10.5698" height="61.5296" rx="5.28073" fill="#E0C6FD"/>
<rect x="433.871" y="279.96" width="10.5698" height="28.7978" rx="5.28073" fill="#93AAFD"/>
<rect x="478.92" y="122.003" width="10.5698" height="186.755" rx="5.28073" fill="#962DFF"/>
<rect x="495.831" y="179.786" width="10.5698" height="128.971" rx="5.28073" fill="#4A3AFF"/>
<rect x="512.743" y="205.892" width="10.5698" height="102.866" rx="5.28073" fill="#E0C6FD"/>
<rect x="529.655" y="149.064" width="10.5698" height="159.694" rx="5.28073" fill="#93AAFD"/>
<rect x="574.695" y="97.1973" width="10.5698" height="211.561" rx="5.28073" fill="#962DFF"/>
<rect x="591.606" y="156.224" width="10.5698" height="152.534" rx="5.28073" fill="#4A3AFF"/>
<rect x="608.518" y="203.412" width="10.5698" height="105.345" rx="5.28073" fill="#E0C6FD"/>
<rect x="625.43" y="257.703" width="10.5698" height="51.0547" rx="5.28073" fill="#93AAFD"/>
</svg>
