<svg width="40" height="40" viewBox="0 0 40 40" fill="none" xmlns="http://www.w3.org/2000/svg">
<g clip-path="url(#clip0_1897_595)">
<path fill-rule="evenodd" clip-rule="evenodd" d="M31.2562 35.0462H8.76311C6.69499 35.0462 5.01624 33.3675 5.01624 31.2994V8.7925C5.01624 6.725 6.69499 5.04625 8.76311 5.04625H31.2562C33.3244 5.04625 35.0031 6.725 35.0031 8.7925V31.2994C35.0031 33.3675 33.3244 35.0462 31.2562 35.0462ZM15.0162 32.5462V7.54625H9.38374C8.35249 7.54687 7.51561 8.38375 7.51561 9.41437V30.6781C7.51561 31.7087 8.35249 32.5462 9.38374 32.5462H15.0162ZM30.6356 7.54625H17.5162V32.5462H30.6356C31.6669 32.5462 32.5037 31.7087 32.5037 30.6781V9.41437C32.5037 8.38375 31.6669 7.54687 30.6356 7.54625Z" fill="#1E1E1E"/>
</g>
<defs>
<clipPath id="clip0_1897_595">
<rect width="40" height="40" fill="white"/>
</clipPath>
</defs>
</svg>
