<svg width="30" height="30" viewBox="0 0 30 30" fill="none" xmlns="http://www.w3.org/2000/svg">
<rect width="30" height="30" rx="5" fill="#1D222E"/>
<path d="M15.6571 13.6359C15.7671 13.2852 16.233 13.2852 16.343 13.6359L16.9879 15.6939C17.1299 16.1464 17.3691 16.5574 17.6865 16.8946C18.0039 17.2317 18.3909 17.4856 18.8167 17.6362L20.7525 18.3215C21.0825 18.4384 21.0825 18.9335 20.7525 19.0504L18.8157 19.7357C18.39 19.8866 18.0031 20.1407 17.6859 20.478C17.3686 20.8153 17.1297 21.2265 16.9879 21.679L16.343 23.736C16.3193 23.8128 16.2734 23.8797 16.2118 23.9271C16.1502 23.9745 16.0761 24 16 24C15.924 24 15.8499 23.9745 15.7883 23.9271C15.7267 23.8797 15.6808 23.8128 15.6571 23.736L15.0121 21.678C14.8703 21.2257 14.6313 20.8147 14.314 20.4776C13.9968 20.1404 13.61 19.8865 13.1843 19.7357L11.2475 19.0504C11.1753 19.0252 11.1124 18.9764 11.0678 18.911C11.0232 18.8455 10.9991 18.7668 10.9991 18.686C10.9991 18.6052 11.0232 18.5264 11.0678 18.461C11.1124 18.3955 11.1753 18.3467 11.2475 18.3215L13.1843 17.6362C13.61 17.4855 13.9968 17.2315 14.314 16.8944C14.6313 16.5572 14.8703 16.1462 15.0121 15.6939L15.6571 13.6359ZM11.7945 8.21816C11.8088 8.17215 11.8364 8.13211 11.8734 8.10373C11.9104 8.07535 11.9549 8.06008 12.0005 8.06008C12.0461 8.06008 12.0905 8.07535 12.1275 8.10373C12.1645 8.13211 12.1921 8.17215 12.2064 8.21816L12.5934 9.45279C12.7664 10.0032 13.1723 10.4345 13.6903 10.6184L14.8522 11.0296C14.8955 11.0448 14.9331 11.0741 14.9598 11.1134C14.9866 11.1527 15.0009 11.2 15.0009 11.2484C15.0009 11.2969 14.9866 11.3441 14.9598 11.3834C14.9331 11.4227 14.8955 11.4521 14.8522 11.4673L13.6903 11.8785C13.4347 11.9686 13.2024 12.1209 13.012 12.3233C12.8216 12.5257 12.6782 12.7725 12.5934 13.0441L12.2064 14.2787C12.1921 14.3247 12.1645 14.3647 12.1275 14.3931C12.0905 14.4215 12.0461 14.4368 12.0005 14.4368C11.9549 14.4368 11.9104 14.4215 11.8734 14.3931C11.8364 14.3647 11.8088 14.3247 11.7945 14.2787L11.4075 13.0441C11.3227 12.7725 11.1794 12.5257 10.9889 12.3233C10.7985 12.1209 10.5662 11.9686 10.3106 11.8785L9.14877 11.4673C9.10547 11.4521 9.06779 11.4227 9.04108 11.3834C9.01437 11.3441 9 11.2969 9 11.2484C9 11.2 9.01437 11.1527 9.04108 11.1134C9.06779 11.0741 9.10547 11.0448 9.14877 11.0296L10.3106 10.6184C10.5662 10.5282 10.7985 10.3759 10.9889 10.1736C11.1794 9.9712 11.3227 9.7244 11.4075 9.45279L11.7945 8.21816ZM18.8627 7.1036C18.8726 7.07334 18.8911 7.04711 18.9156 7.02854C18.9402 7.00998 18.9696 7 18.9997 7C19.0298 7 19.0592 7.00998 19.0838 7.02854C19.1083 7.04711 19.1268 7.07334 19.1367 7.1036L19.3947 7.92598C19.5097 8.2936 19.7806 8.58154 20.1266 8.70373L20.9005 8.97785C20.929 8.98834 20.9537 9.008 20.9711 9.03409C20.9886 9.06017 20.998 9.0914 20.998 9.12342C20.998 9.15544 20.9886 9.18666 20.9711 9.21275C20.9537 9.23884 20.929 9.25849 20.9005 9.26898L20.1266 9.54311C19.9562 9.60367 19.8015 9.70545 19.6745 9.84041C19.5474 9.97538 19.4517 10.1399 19.3947 10.3209L19.1367 11.1432C19.1268 11.1735 19.1083 11.1997 19.0838 11.2183C19.0592 11.2369 19.0298 11.2468 18.9997 11.2468C18.9696 11.2468 18.9402 11.2369 18.9156 11.2183C18.8911 11.1997 18.8726 11.1735 18.8627 11.1432L18.6048 10.3209C18.5478 10.1399 18.452 9.97538 18.325 9.84041C18.198 9.70545 18.0432 9.60367 17.8728 9.54311L17.0999 9.26898C17.0714 9.25849 17.0468 9.23884 17.0293 9.21275C17.0118 9.18666 17.0024 9.15544 17.0024 9.12342C17.0024 9.0914 17.0118 9.06017 17.0293 9.03409C17.0468 9.008 17.0714 8.98834 17.0999 8.97785L17.8738 8.70373C18.2198 8.58154 18.4908 8.2936 18.6058 7.92598L18.8627 7.1036Z" fill="white"/>
</svg>
