<svg width="107" height="47" viewBox="0 0 107 47" fill="none" xmlns="http://www.w3.org/2000/svg">
<path d="M33.3473 33.7879C33.3151 34.3976 33.3151 35.0086 33.3473 35.6184C33.3669 35.8797 33.4424 36.1339 33.5687 36.3635C33.695 36.5932 33.8692 36.793 34.0795 36.9496V37.1159H27.856V36.9496C28.0811 36.8082 28.2664 36.6118 28.3945 36.3789C28.5226 36.146 28.5893 35.8842 28.5881 35.6184C28.6204 35.0086 28.6204 34.3976 28.5881 33.7879V6.06505L17.2061 35.0859C17.1432 35.264 17.0257 35.4178 16.8704 35.5253C16.715 35.6329 16.5297 35.6887 16.3408 35.6849C16.169 35.6895 15.9999 35.6408 15.8569 35.5454C15.7139 35.4501 15.6039 35.3128 15.5421 35.1524L1.99684 4.03497V33.7879C1.96461 34.3976 1.96461 35.0086 1.99684 35.6184C2.00813 35.8854 2.08359 36.1458 2.21683 36.3776C2.35007 36.6093 2.53715 36.8055 2.76228 36.9496V37.1159H0V36.9496C0.225128 36.8055 0.412213 36.6093 0.545453 36.3776C0.678694 36.1458 0.754153 35.8854 0.765443 35.6184C0.797671 35.0086 0.797671 34.3976 0.765443 33.7879V4.30117C0.797702 3.66925 0.797702 3.03607 0.765443 2.40415C0.758156 2.14514 0.683785 1.89252 0.549618 1.67085C0.41545 1.44918 0.22609 1.26603 0 1.13946H2.16323C3.34566 1.10961 4.5083 1.44681 5.4913 2.10463C6.43733 2.71682 7.179 3.59759 7.62127 4.634L18.138 29.0954C18.1683 29.1129 18.2028 29.1221 18.2378 29.1221C18.2729 29.1221 18.3073 29.1129 18.3377 29.0954C18.4132 29.1207 18.495 29.1207 18.5706 29.0954L28.8877 3.36932C29.1141 2.72674 29.5323 2.16911 30.0858 1.7718C30.6359 1.34263 31.3186 1.11898 32.016 1.13946H34.0795C33.8675 1.27879 33.6909 1.46573 33.5638 1.68527C33.4367 1.90481 33.3625 2.15092 33.3473 2.40415C33.315 3.03607 33.315 3.66925 33.3473 4.30117V33.7879Z" fill="white"/>
<path d="M44.2508 36.6158H38.3601C38.6598 36.2366 38.8238 35.7679 38.826 35.2846C38.826 34.6523 38.826 34.0199 38.826 33.3876V13.9849C38.8583 13.3641 38.8583 12.742 38.826 12.1212C38.8121 11.8548 38.7355 11.5954 38.6025 11.3641C38.4695 11.1328 38.2838 10.9361 38.0606 10.79H44.0178C44.0178 10.79 44.0178 10.79 44.0178 10.9564C43.8422 11.1211 43.706 11.3234 43.6196 11.5482C43.5331 11.773 43.4986 12.0144 43.5186 12.2544C43.5186 12.8867 43.5186 13.5522 43.5186 14.1513V33.554C43.469 34.1854 43.469 34.8196 43.5186 35.4509C43.5359 35.6902 43.6117 35.9216 43.7394 36.1247C43.8671 36.3278 44.0427 36.4965 44.2508 36.6158Z" fill="white"/>
<path d="M71.8534 34.0489C71.5627 34.5596 71.1919 35.0203 70.7552 35.4134C70.3052 35.7802 69.8137 36.093 69.2908 36.3453C68.6374 36.6576 67.9178 36.8061 67.1941 36.7779C66.1519 36.8328 65.1281 36.4876 64.332 35.8128C63.4864 35.0288 62.9542 33.9644 62.8343 32.8175C62.8343 32.3183 62.6014 31.7192 62.4683 31.0203C62.3351 30.3214 62.202 29.5892 62.0689 28.7905C61.9358 27.9917 61.7694 27.1598 61.603 26.3277C61.4366 25.4957 61.3034 24.697 61.2036 23.9315C60.9845 22.4895 60.266 21.1703 59.1734 20.2041C58.2527 19.3867 57.0758 18.916 55.8454 18.8729C55.7989 18.8963 55.7476 18.9084 55.6956 18.9084C55.6436 18.9084 55.5923 18.8963 55.5459 18.8729C55.5053 18.7542 55.5053 18.6254 55.5459 18.5068C55.5144 18.398 55.5144 18.2827 55.5459 18.174C55.6844 18.1167 55.84 18.1167 55.9785 18.174C57.3161 18.3332 58.6679 18.3332 60.0055 18.174C60.9066 18.0424 61.7821 17.7729 62.6014 17.3752C63.1129 17.1575 63.5436 16.7851 63.8328 16.3102C63.9231 16.1413 63.9703 15.9527 63.9703 15.7612C63.9703 15.5696 63.9231 15.3809 63.8328 15.212C63.6351 14.9069 63.3553 14.6639 63.0256 14.5108C62.6959 14.3577 62.3297 14.3008 61.9691 14.3467C61.1113 14.3713 60.2698 14.5873 59.5063 14.979C58.5086 15.4258 57.6051 16.0583 56.8438 16.8427C55.9227 17.7493 55.148 18.7935 54.5475 19.9379C53.8383 21.2728 53.3867 22.7291 53.2162 24.231V33.8492C53.1831 34.4811 53.1831 35.1143 53.2162 35.7462C53.2134 35.9995 53.2763 36.249 53.3988 36.4707C53.5213 36.6924 53.6992 36.8785 53.9151 37.0108H48.3239C48.6268 36.6353 48.7808 36.1614 48.7566 35.6796C48.7566 35.0473 48.7566 34.4149 48.7566 33.7826V4.42907C48.7879 3.81932 48.7879 3.20831 48.7566 2.59857C48.7453 2.33151 48.6698 2.07109 48.5366 1.83937C48.4034 1.60765 48.2163 1.41146 47.9911 1.26736H53.8818C53.5612 1.63473 53.3943 2.11143 53.4159 2.59857C53.3832 3.21938 53.3832 3.84147 53.4159 4.46228V20.9363C53.8897 19.5255 54.5863 18.1997 55.4793 17.0092C56.3914 15.7838 57.441 14.6672 58.6077 13.6811C59.6681 12.7424 60.8557 11.958 62.1354 11.3514C63.1629 10.8049 64.3006 10.4978 65.4635 10.4529C66.2063 10.4382 66.9327 10.6725 67.5269 11.1184C67.8607 11.3366 68.1215 11.6498 68.2757 12.0176C68.4299 12.3853 68.4705 12.7909 68.3922 13.1819C68.189 14.1232 67.6728 14.9679 66.9279 15.5781C65.8996 16.4585 64.7139 17.136 63.4334 17.5749C61.7462 18.1712 59.964 18.4532 58.1751 18.4069C59.1248 18.3945 60.0731 18.4838 61.0039 18.6732C61.8865 18.8299 62.7396 19.1217 63.5333 19.5384C64.2539 19.9284 64.8879 20.4606 65.397 21.1026C65.9286 21.825 66.2614 22.6743 66.3621 23.5655C66.3621 24.0647 66.5618 24.697 66.6616 25.4292C66.7615 26.1614 66.9611 26.9601 67.1275 27.7921C67.2939 28.6241 67.4271 29.4895 67.5602 30.3215C67.6933 31.1535 67.8597 31.9855 67.9929 32.6844C68.0923 33.3283 68.3559 33.9358 68.7583 34.4482C68.8615 34.6034 68.9995 34.7322 69.1613 34.8246C69.323 34.9171 69.5041 34.9706 69.6902 34.9808C70.1547 34.9724 70.5972 34.781 70.9215 34.4482C71.2449 34.182 71.5255 33.8678 71.7536 33.5164L71.8534 34.0489Z" fill="white"/>
<path d="M88.6617 3.8309C88.7539 4.09827 88.7779 4.38454 88.7314 4.66353C88.6849 4.94251 88.5694 5.2054 88.3954 5.42841C88.2572 5.61788 88.0797 5.77528 87.8751 5.88992C87.6705 6.00456 87.4436 6.07379 87.2098 6.09275C86.976 6.1117 86.7409 6.07999 86.5205 5.99981C86.3001 5.91964 86.0996 5.79281 85.9327 5.62809C85.6147 5.23444 85.3772 4.78214 85.2337 4.29688C85.069 3.73022 84.869 3.17445 84.6347 2.63284C84.436 2.13142 84.1671 1.66073 83.836 1.23501C83.6422 1.04261 83.4049 0.899805 83.1442 0.818692C82.8835 0.737579 82.607 0.720602 82.3383 0.769128C81.8093 0.840115 81.3138 1.06845 80.9162 1.42453C80.5186 1.7806 80.2372 2.24799 80.1085 2.76599C79.6911 4.3843 79.5118 6.05476 79.576 7.72479V10.6868H84.2686V11.3857H79.576V33.4508C79.576 34.0832 79.576 34.7154 79.576 35.3478C79.5732 35.6049 79.6397 35.8581 79.7685 36.0806C79.8974 36.3032 80.0838 36.4869 80.3082 36.6124H74.4508C74.7386 36.2289 74.8907 35.7607 74.8834 35.2812C74.8834 34.6489 74.8834 34.0165 74.8834 33.3842V11.3191H72.0213V10.6202H74.95V8.49028C74.9708 7.6137 75.0936 6.74252 75.3161 5.89439C75.5479 4.89932 75.9535 3.95296 76.5142 3.09882C77.1049 2.21494 77.8762 1.4663 78.7773 0.90228C79.7813 0.298676 80.934 -0.0126045 82.1053 0.00363484C83.0559 -0.0255432 84.0037 0.121151 84.901 0.436301C85.5731 0.693687 86.2017 1.0529 86.7647 1.50131C87.2047 1.86207 87.5864 2.28868 87.8962 2.76599C88.2277 3.05933 88.4893 3.42317 88.6617 3.8309Z" fill="white"/>
<path d="M107 10.6861C106.953 11.5757 106.807 12.4573 106.567 13.3152C106.301 14.5133 105.968 15.9111 105.536 17.5086C105.103 19.1061 104.57 20.8366 104.005 22.5672C103.439 24.2978 102.807 26.1282 102.174 27.8588C101.542 29.5894 100.91 31.187 100.244 32.8177C99.5784 34.4485 98.9793 35.6799 98.4468 36.7782C97.618 38.4225 96.6493 39.9925 95.5514 41.4708C94.7174 42.6071 93.7695 43.6553 92.7225 44.5991C91.9244 45.303 91.0274 45.8861 90.06 46.3297C89.2886 46.6469 88.4645 46.8162 87.6306 46.8289C86.523 46.8391 85.4443 46.4756 84.5687 45.7972C84.0696 45.446 83.6532 44.99 83.3485 44.4611C83.0439 43.9323 82.8584 43.3433 82.8049 42.7353C82.6974 41.3356 83.0352 39.9379 83.77 38.7417C84.7013 37.1614 85.9611 35.7994 87.4642 34.748C89.41 33.3319 91.598 32.283 93.9206 31.6529L92.2899 27.3597C91.6908 25.8287 91.0917 24.2646 90.526 22.7337C89.9602 21.2028 89.3945 19.7384 88.8953 18.3739C88.396 17.0094 87.9634 15.8779 87.6306 15.0458C87.3044 14.0309 86.8574 13.0587 86.2994 12.1503L85.4008 10.8524H92.2233C92.0713 11.2163 91.9597 11.5958 91.8905 11.984C91.8441 12.8984 92.0152 13.8109 92.3897 14.6464C92.6893 15.4118 93.0886 16.5101 93.6211 17.9745C94.1536 19.4388 94.6861 20.9697 95.2851 22.6671L96.9824 27.5593L98.3802 31.5864C96.562 31.7604 94.7729 32.1629 93.0553 32.7844C91.7374 33.2702 90.4852 33.9187 89.3279 34.7148C88.4327 35.3497 87.646 36.1251 86.9982 37.011C86.5125 37.7005 86.1727 38.4819 85.9998 39.3074C85.8294 39.9847 85.8294 40.6937 85.9998 41.3709C86.1974 41.9476 86.5845 42.4403 87.0981 42.7687C87.7445 43.1846 88.4929 43.4149 89.2613 43.4343C90.7644 43.3447 92.1888 42.7324 93.2883 41.7036C94.8232 40.3227 96.0971 38.6769 97.049 36.8447C97.9386 35.1916 98.7385 33.4919 99.4452 31.7527C100.242 29.7743 100.887 27.7384 101.376 25.6624C102.522 20.7809 102.882 15.7475 102.44 10.7526L107 10.6861Z" fill="white"/>
<g clip-path="url(#clip0_1897_611)">
<path d="M43.459 3.37262C43.4231 2.78598 43.1647 2.23516 42.7365 1.83248C42.3084 1.42981 41.7428 1.20561 41.1551 1.20561C40.5673 1.20561 40.0017 1.42981 39.5736 1.83248C39.1455 2.23516 38.8871 2.78598 38.8511 3.37262C38.2644 3.4086 37.7136 3.66699 37.3109 4.09512C36.9083 4.52325 36.6841 5.08885 36.6841 5.67659C36.6841 6.26433 36.9083 6.82994 37.3109 7.25807C37.7136 7.68619 38.2644 7.94459 38.8511 7.98057C38.8871 8.5672 39.1455 9.11803 39.5736 9.5207C40.0017 9.92338 40.5673 10.1476 41.1551 10.1476C41.7428 10.1476 42.3084 9.92338 42.7365 9.5207C43.1647 9.11803 43.4231 8.5672 43.459 7.98057C44.0457 7.94459 44.5965 7.68619 44.9992 7.25807C45.4018 6.82994 45.626 6.26433 45.626 5.67659C45.626 5.08885 45.4018 4.52325 44.9992 4.09512C44.5965 3.66699 44.0457 3.4086 43.459 3.37262ZM41.1507 1.78566C41.5927 1.78489 42.0182 1.95316 42.3401 2.25599C42.6619 2.55883 42.8558 2.97329 42.882 3.41446C42.4923 3.48961 42.1284 3.6636 41.8252 3.91976C41.5221 4.17592 41.2898 4.50565 41.1507 4.87734C41.0123 4.5052 40.7803 4.17505 40.477 3.91879C40.1738 3.66252 39.8095 3.48882 39.4195 3.41446C39.4446 2.97177 39.6386 2.5556 39.9616 2.25175C40.2845 1.94789 40.7117 1.77952 41.1551 1.78134L41.1507 1.78566ZM41.5835 5.57849C41.4854 5.55934 41.3861 5.54681 41.2863 5.54098C41.2805 5.44119 41.268 5.3419 41.2488 5.24379C41.3869 5.23679 41.5236 5.21256 41.6557 5.17165C41.7394 4.90213 41.8874 4.65702 42.087 4.45745C42.2865 4.25789 42.5316 4.10987 42.8012 4.02616C42.7174 4.29568 42.5694 4.54079 42.3699 4.74036C42.1703 4.93992 41.9252 5.08794 41.6557 5.17165C41.6181 5.3027 41.5967 5.43789 41.5922 5.57416L41.5835 5.57849ZM41.6557 6.19019C41.9255 6.27323 42.171 6.42103 42.3707 6.62069C42.5703 6.82035 42.7181 7.06581 42.8012 7.33568C42.5318 7.25175 42.2868 7.10365 42.0872 6.90412C41.8877 6.70459 41.7396 6.4596 41.6557 6.19019C41.5236 6.14929 41.3869 6.12505 41.2488 6.11806C41.268 6.01994 41.2805 5.92066 41.2863 5.82086C41.3861 5.81503 41.4854 5.8025 41.5835 5.78335C41.5937 5.92035 41.6208 6.05555 41.6643 6.18586L41.6557 6.19019ZM40.7093 5.78335C40.8074 5.8025 40.9067 5.81503 41.0065 5.82086C41.0123 5.92066 41.0248 6.01994 41.044 6.11806C40.9059 6.12505 40.7692 6.14929 40.6371 6.19019C40.5534 6.45971 40.4054 6.70483 40.2058 6.90439C40.0063 7.10395 39.7612 7.25197 39.4916 7.33568C39.5754 7.06616 39.7234 6.82105 39.9229 6.62149C40.1225 6.42192 40.3676 6.2739 40.6371 6.19019C40.6813 6.0571 40.7085 5.91894 40.7179 5.77902L40.7093 5.78335ZM41.0065 5.54098C40.9067 5.54681 40.8074 5.55934 40.7093 5.57849C40.7023 5.4404 40.678 5.30373 40.6371 5.17165C40.3677 5.08772 40.1227 4.93962 39.9232 4.74009C39.7237 4.54056 39.5756 4.29556 39.4916 4.02616C39.7615 4.1092 40.007 4.257 40.2066 4.45666C40.4063 4.65631 40.5541 4.90178 40.6371 5.17165C40.7692 5.21256 40.9059 5.23679 41.044 5.24379C41.0279 5.34067 41.0183 5.4385 41.0151 5.53665L41.0065 5.54098ZM37.2555 5.68525C37.2547 5.24331 37.423 4.8178 37.7258 4.49593C38.0286 4.17405 38.4431 3.98017 38.8843 3.95402C38.9597 4.34362 39.1338 4.70735 39.3899 5.01046C39.646 5.31356 39.9756 5.54589 40.3471 5.68525C39.975 5.82364 39.6449 6.05568 39.3886 6.35895C39.1323 6.66222 38.9586 7.02646 38.8843 7.41647C38.4424 7.38918 38.0277 7.19363 37.7256 6.87001C37.4234 6.5464 37.2567 6.11932 37.2598 5.67659L37.2555 5.68525ZM41.1507 9.58051C40.7088 9.58128 40.2833 9.41301 39.9614 9.11018C39.6395 8.80735 39.4457 8.39288 39.4195 7.95171C39.8095 7.87735 40.1738 7.70365 40.477 7.44738C40.7803 7.19112 41.0123 6.86097 41.1507 6.48883C41.2901 6.86038 41.5224 7.18997 41.8255 7.44609C42.1286 7.70221 42.4924 7.8763 42.882 7.95171C42.8537 8.39059 42.6595 8.80229 42.3388 9.10319C42.0181 9.4041 41.5948 9.57166 41.1551 9.57185L41.1507 9.58051ZM43.4172 7.41647C43.3428 7.02646 43.1691 6.66222 42.9129 6.35895C42.6566 6.05568 42.3264 5.82364 41.9543 5.68525C42.326 5.54613 42.6557 5.31387 42.9119 5.01073C43.168 4.70758 43.342 4.34372 43.4172 3.95402C43.8541 3.98497 44.263 4.18036 44.5615 4.50081C44.8601 4.82125 45.0261 5.24295 45.0261 5.68092C45.0261 6.11889 44.8601 6.54059 44.5615 6.86104C44.263 7.18149 43.8541 7.37687 43.4172 7.40782V7.41647Z" fill="white"/>
</g>
<defs>
<clipPath id="clip0_1897_611">
<rect width="8.90541" height="8.90541" fill="white" transform="translate(36.6841 1.20423) scale(1.00441)"/>
</clipPath>
</defs>
</svg>
