<svg xmlns="http://www.w3.org/2000/svg" viewBox="0 0 512 512">
  <style>
    .light-icon {
      display: block;
    }

    .dark-icon {
      display: none;
    }

    @media (prefers-color-scheme: dark) {
      .light-icon {
        display: none;
      }

      .dark-icon {
        display: block;
      }
    }
  </style>

  <!-- Light mode icon (black on transparent) -->
  <g class="light-icon">
    <path
      d="M387.804 124.131C385.745 90.5517 370.954 59.0222 346.448 35.9727C321.942 12.9232 289.566 0.0898438 255.923 0.0898438C222.28 0.0898438 189.904 12.9232 165.398 35.9727C140.892 59.0222 126.101 90.5517 124.042 124.131C90.4619 126.191 58.9323 140.982 35.8828 165.488C12.8333 189.994 0 222.37 0 256.013C0 289.656 12.8333 322.031 35.8828 346.538C58.9323 371.044 90.4619 385.835 124.042 387.894C126.101 421.474 140.892 453.003 165.398 476.053C189.904 499.102 222.28 511.936 255.923 511.936C289.566 511.936 321.942 499.102 346.448 476.053C370.954 453.003 385.745 421.474 387.804 387.894C421.384 385.835 452.913 371.044 475.963 346.538C499.012 322.031 511.846 289.656 511.846 256.013C511.846 222.37 499.012 189.994 475.963 165.488C452.913 140.982 421.384 126.191 387.804 124.131ZM255.675 33.2927C280.972 33.2484 305.328 42.8803 323.753 60.2147C342.178 77.5491 353.275 101.273 354.772 126.526C332.465 130.828 311.637 140.787 294.285 155.45C276.933 170.113 263.638 188.987 255.675 210.263C247.754 188.961 234.471 170.063 217.112 155.394C199.753 140.726 178.903 130.783 156.578 126.526C158.016 101.187 169.122 77.3646 187.606 59.9716C206.09 42.5787 230.543 32.9408 255.923 33.045L255.675 33.2927ZM280.449 250.397C274.833 249.301 269.15 248.584 263.438 248.25C263.104 242.538 262.387 236.855 261.291 231.239C269.195 230.838 277.018 229.451 284.578 227.109C289.37 211.682 297.843 197.651 309.266 186.228C320.689 174.805 334.72 166.332 350.147 161.54C345.356 176.968 336.883 190.999 325.46 202.422C314.037 213.845 300.006 222.318 284.578 227.109C282.425 234.611 281.205 242.349 280.945 250.149L280.449 250.397ZM284.578 285.411C300.026 290.165 314.077 298.625 325.506 310.053C336.934 321.482 345.394 335.533 350.147 350.98C334.726 346.176 320.703 337.699 309.281 326.277C297.86 314.856 289.383 300.832 284.578 285.411C277.018 283.07 269.195 281.683 261.291 281.282C262.387 275.666 263.104 269.983 263.438 264.271C269.15 263.937 274.833 263.22 280.449 262.124C281.031 269.966 282.584 277.705 285.074 285.164L284.578 285.411ZM230.405 262.124C236.022 263.22 241.705 263.937 247.417 264.271C247.751 269.983 248.468 275.666 249.564 281.282C241.66 281.683 233.837 283.07 226.276 285.411C221.485 300.839 213.012 314.87 201.589 326.293C190.166 337.716 176.135 346.189 160.707 350.98C165.499 335.553 173.972 321.522 185.395 310.099C196.818 298.676 210.849 290.203 226.276 285.411C228.806 277.793 230.36 269.885 230.901 261.876L230.405 262.124ZM247.417 248.25C241.705 248.584 236.022 249.301 230.405 250.397C230.005 242.493 228.618 234.67 226.276 227.109C210.855 222.305 196.832 213.828 185.41 202.406C173.989 190.985 165.512 176.961 160.707 161.54C176.155 166.294 190.206 174.754 201.635 186.182C213.063 197.611 221.523 211.662 226.276 227.109C233.837 229.451 241.66 230.838 249.564 231.239C248.645 236.784 248.093 242.384 247.913 248.002L247.417 248.25ZM32.7074 256.508C32.6631 231.211 42.2951 206.855 59.6295 188.43C76.9639 170.006 100.688 158.908 125.941 157.411C130.258 179.712 140.223 200.533 154.883 217.882C169.544 235.232 188.41 248.531 209.678 256.508C188.376 264.43 169.478 277.712 154.809 295.071C140.14 312.431 130.198 333.28 125.941 355.605C100.646 354.043 76.9116 342.849 59.6164 324.325C42.3213 305.801 32.7802 281.355 32.9551 256.013L32.7074 256.508ZM255.675 479.476C230.378 479.52 206.022 469.888 187.597 452.554C169.173 435.22 158.075 411.495 156.578 386.242C178.903 381.986 199.753 372.043 217.112 357.374C234.471 342.706 247.754 323.807 255.675 302.506C263.652 323.773 276.951 342.64 294.301 357.3C311.651 371.961 332.471 381.926 354.772 386.242C353.157 411.364 342.041 434.93 323.682 452.154C305.323 469.378 281.097 478.969 255.923 478.98L255.675 479.476ZM385.409 355.605C381.153 333.28 371.21 312.431 356.541 295.071C341.873 277.712 322.974 264.43 301.673 256.508C322.949 248.545 341.823 235.25 356.486 217.898C371.148 200.546 381.108 179.718 385.409 157.411C410.416 159.183 433.823 170.367 450.912 188.71C468.001 207.052 477.503 231.191 477.503 256.26C477.503 281.33 468.001 305.468 450.912 323.811C433.823 342.154 410.416 353.338 385.409 355.109V355.605Z"
      fill="#000000" />
  </g>

  <!-- Dark mode icon (white on transparent) -->
  <g class="dark-icon">
    <path
      d="M387.804 124.131C385.745 90.5517 370.954 59.0222 346.448 35.9727C321.942 12.9232 289.566 0.0898438 255.923 0.0898438C222.28 0.0898438 189.904 12.9232 165.398 35.9727C140.892 59.0222 126.101 90.5517 124.042 124.131C90.4619 126.191 58.9323 140.982 35.8828 165.488C12.8333 189.994 0 222.37 0 256.013C0 289.656 12.8333 322.031 35.8828 346.538C58.9323 371.044 90.4619 385.835 124.042 387.894C126.101 421.474 140.892 453.003 165.398 476.053C189.904 499.102 222.28 511.936 255.923 511.936C289.566 511.936 321.942 499.102 346.448 476.053C370.954 453.003 385.745 421.474 387.804 387.894C421.384 385.835 452.913 371.044 475.963 346.538C499.012 322.031 511.846 289.656 511.846 256.013C511.846 222.37 499.012 189.994 475.963 165.488C452.913 140.982 421.384 126.191 387.804 124.131ZM255.675 33.2927C280.972 33.2484 305.328 42.8803 323.753 60.2147C342.178 77.5491 353.275 101.273 354.772 126.526C332.465 130.828 311.637 140.787 294.285 155.45C276.933 170.113 263.638 188.987 255.675 210.263C247.754 188.961 234.471 170.063 217.112 155.394C199.753 140.726 178.903 130.783 156.578 126.526C158.016 101.187 169.122 77.3646 187.606 59.9716C206.09 42.5787 230.543 32.9408 255.923 33.045L255.675 33.2927ZM280.449 250.397C274.833 249.301 269.15 248.584 263.438 248.25C263.104 242.538 262.387 236.855 261.291 231.239C269.195 230.838 277.018 229.451 284.578 227.109C289.37 211.682 297.843 197.651 309.266 186.228C320.689 174.805 334.72 166.332 350.147 161.54C345.356 176.968 336.883 190.999 325.46 202.422C314.037 213.845 300.006 222.318 284.578 227.109C282.425 234.611 281.205 242.349 280.945 250.149L280.449 250.397ZM284.578 285.411C300.026 290.165 314.077 298.625 325.506 310.053C336.934 321.482 345.394 335.533 350.147 350.98C334.726 346.176 320.703 337.699 309.281 326.277C297.86 314.856 289.383 300.832 284.578 285.411C277.018 283.07 269.195 281.683 261.291 281.282C262.387 275.666 263.104 269.983 263.438 264.271C269.15 263.937 274.833 263.22 280.449 262.124C281.031 269.966 282.584 277.705 285.074 285.164L284.578 285.411ZM230.405 262.124C236.022 263.22 241.705 263.937 247.417 264.271C247.751 269.983 248.468 275.666 249.564 281.282C241.66 281.683 233.837 283.07 226.276 285.411C221.485 300.839 213.012 314.87 201.589 326.293C190.166 337.716 176.135 346.189 160.707 350.98C165.499 335.553 173.972 321.522 185.395 310.099C196.818 298.676 210.849 290.203 226.276 285.411C228.806 277.793 230.36 269.885 230.901 261.876L230.405 262.124ZM247.417 248.25C241.705 248.584 236.022 249.301 230.405 250.397C230.005 242.493 228.618 234.67 226.276 227.109C210.855 222.305 196.832 213.828 185.41 202.406C173.989 190.985 165.512 176.961 160.707 161.54C176.155 166.294 190.206 174.754 201.635 186.182C213.063 197.611 221.523 211.662 226.276 227.109C233.837 229.451 241.66 230.838 249.564 231.239C248.645 236.784 248.093 242.384 247.913 248.002L247.417 248.25ZM32.7074 256.508C32.6631 231.211 42.2951 206.855 59.6295 188.43C76.9639 170.006 100.688 158.908 125.941 157.411C130.258 179.712 140.223 200.533 154.883 217.882C169.544 235.232 188.41 248.531 209.678 256.508C188.376 264.43 169.478 277.712 154.809 295.071C140.14 312.431 130.198 333.28 125.941 355.605C100.646 354.043 76.9116 342.849 59.6164 324.325C42.3213 305.801 32.7802 281.355 32.9551 256.013L32.7074 256.508ZM255.675 479.476C230.378 479.52 206.022 469.888 187.597 452.554C169.173 435.22 158.075 411.495 156.578 386.242C178.903 381.986 199.753 372.043 217.112 357.374C234.471 342.706 247.754 323.807 255.675 302.506C263.652 323.773 276.951 342.64 294.301 357.3C311.651 371.961 332.471 381.926 354.772 386.242C353.157 411.364 342.041 434.93 323.682 452.154C305.323 469.378 281.097 478.969 255.923 478.98L255.675 479.476ZM385.409 355.605C381.153 333.28 371.21 312.431 356.541 295.071C341.873 277.712 322.974 264.43 301.673 256.508C322.949 248.545 341.823 235.25 356.486 217.898C371.148 200.546 381.108 179.718 385.409 157.411C410.416 159.183 433.823 170.367 450.912 188.71C468.001 207.052 477.503 231.191 477.503 256.26C477.503 281.33 468.001 305.468 450.912 323.811C433.823 342.154 410.416 353.338 385.409 355.109V355.605Z"
      fill="#ffffff" />
  </g>
</svg>